# xmcd
#
# Track frame offsets: 
#        150
#        18450
#        35362
#        54075
#        73800
#        94800
#        114675
#        136650
#        157125
#        177675
#        197250
#        215137
#
# Disc length: 3271 seconds
#
# Revision: 0
# Processed by: cddbd v1.5.2PL0 Copyright (c) Steve Scherf et al.
# Submitted via: ExactAudioCopy v1.0b4
#
DISCID=ab0cc50c
DTITLE=Jaya - In The Raw
DYEAR=1998
DGENRE=Easy Listening
TTITLE0=You Lift Me Up
TTITLE1=Magpakailan Pa Man
TTITLE2=Together
TTITLE3=Dahil Ba Sa Kanya
TTITLE4=Kahit Na
TTITLE5=Wala Na Bang Pag-ibig
TTITLE6=From This Moment On
TTITLE7=Mayro'n Pa Ring Pag-ibig
TTITLE8=I Won't Let You Go Again
TTITLE9=Love's Taking The Best Of Me
TTITLE10=I Still Believe In Love
TTITLE11=Sana'y Maulit Muli
EXTD=
EXTT0=
EXTT1=
EXTT2=
EXTT3=
EXTT4=
EXTT5=
EXTT6=
EXTT7=
EXTT8=
EXTT9=
EXTT10=
EXTT11=
PLAYORDER=
